HIERARCHY
ROOT Hips
{
	OFFSET	0.00	0.00	0.00
	CHANNELS 6 Xposition Yposition Zposition Zrotation Xrotation Yrotation
	JOINT LeftUpLeg
	{
		OFFSET	 0.126116	-0.014019	-0.065224
		CHANNELS 3 Zrotation Xrotation Yrotation
		JOINT LeftLeg
		{
			OFFSET	 0.000000	 0.000000	 0.569914
			CHANNELS 3 Zrotation Xrotation Yrotation
			JOINT LeftFoot
			{
				OFFSET	 0.000000	 0.000000	 0.544423
				CHANNELS 3 Zrotation Xrotation Yrotation
				JOINT LeftToeBase
				{
					OFFSET	 0.000000	 0.000000	 0.207117
					CHANNELS 3 Zrotation Xrotation Yrotation
					End Site
					{
						OFFSET	 0.000000	 0.000000	 0.207117
					}
				}
			}
		}
	}
	JOINT RightUpLeg
	{
		OFFSET	-0.124023	-0.008373	-0.065224
		CHANNELS 3 Zrotation Xrotation Yrotation
		JOINT RightLeg
		{
			OFFSET	 0.000000	 0.000000	 0.570047
			CHANNELS 3 Zrotation Xrotation Yrotation
			JOINT RightFoot
			{
				OFFSET	 0.000000	 0.000000	 0.544354
				CHANNELS 3 Zrotation Xrotation Yrotation
				JOINT RightToeBase
				{
					OFFSET	 0.000000	 0.000000	 0.207540
					CHANNELS 3 Zrotation Xrotation Yrotation
					End Site
					{
						OFFSET	 0.000000	 0.000000	 0.207540
					}
				}
			}
		}
	}
	JOINT Spine
	{
		OFFSET	 0.000184	-0.007763	 0.117403
		CHANNELS 3 Zrotation Xrotation Yrotation
		JOINT Spine1
		{
			OFFSET	 0.000000	 0.000000	 0.137269
			CHANNELS 3 Zrotation Xrotation Yrotation
			JOINT Spine2
			{
				OFFSET	 0.000000	 0.000000	 0.156879
				CHANNELS 3 Zrotation Xrotation Yrotation
				JOINT LeftShoulder
				{
					OFFSET	 0.080501	-0.002496	 0.160144
					CHANNELS 3 Zrotation Xrotation Yrotation
					JOINT LeftArm
					{
						OFFSET	 0.000000	 0.000000	 0.164363
						CHANNELS 3 Zrotation Xrotation Yrotation
						JOINT LeftForeArm
						{
							OFFSET	 0.000000	 0.000000	 0.364576
							CHANNELS 3 Zrotation Xrotation Yrotation
							JOINT LeftHand
							{
								OFFSET	 0.000000	 0.000000	 0.360812
								CHANNELS 3 Zrotation Xrotation Yrotation
								JOINT LeftHandIndex1
								{
									OFFSET	 0.000000	 0.000000	 0.086006
									CHANNELS 3 Zrotation Xrotation Yrotation
									JOINT LeftHandIndex2
									{
										OFFSET	 0.000000	 0.000000	 0.047236
										CHANNELS 3 Zrotation Xrotation Yrotation
										JOINT LeftHandIndex3
										{
											OFFSET	-0.004284	-0.000551	 0.038166
											CHANNELS 3 Zrotation Xrotation Yrotation
											End Site
											{
												OFFSET	-0.004284	-0.000551	 0.038166
											}
										}
									}
								}
							}
						}
					}
				}
				JOINT Neck
				{
					OFFSET	 0.000000	 0.000000	 0.176489
					CHANNELS 3 Zrotation Xrotation Yrotation
					JOINT Head
					{
						OFFSET	 0.000000	-0.001747	 0.077940
						CHANNELS 3 Zrotation Xrotation Yrotation
						End Site
						{
							OFFSET	 0.000000	-0.001747	 0.077940
						}
					}
				}
				JOINT RightShoulder
				{
					OFFSET	-0.080363	 0.000306	 0.159706
					CHANNELS 3 Zrotation Xrotation Yrotation
					JOINT RightArm
					{
						OFFSET	 0.000000	 0.000000	 0.164196
						CHANNELS 3 Zrotation Xrotation Yrotation
						JOINT RightForeArm
						{
							OFFSET	 0.000000	 0.000000	 0.365611
							CHANNELS 3 Zrotation Xrotation Yrotation
							JOINT RightHand
							{
								OFFSET	 0.000000	 0.000000	 0.360648
								CHANNELS 3 Zrotation Xrotation Yrotation
								JOINT RightHandIndex1
								{
									OFFSET	 0.000000	 0.000000	 0.069977
									CHANNELS 3 Zrotation Xrotation Yrotation
									JOINT RightHandIndex2
									{
										OFFSET	 0.000000	 0.000000	 0.052305
										CHANNELS 3 Zrotation Xrotation Yrotation
										JOINT RightHandIndex3
										{
											OFFSET	 0.009002	-0.000782	 0.042196
											CHANNELS 3 Zrotation Xrotation Yrotation
											End Site
											{
												OFFSET	 0.009002	-0.000782	 0.042196
											}
										}
									}
								}
							}
						}
					}
				}
			}
		}
	}
}
MOTION
Frames:    13
Frame Time: 0.03333334
 0.000396	 0.045116	 1.272598	-0.084053	 2.461934	 0.700796	 20.148770	-7.647154	 176.599000	 2.296177	-14.618820	 0.685134	-0.467453	 70.945900	 0.334815	-2.385833	 28.452750	 0.000004	-12.657110	-6.715400	-177.308400	-0.775996	-12.597970	 0.954962	 5.568763	 69.754690	 0.735422	 2.384659	 28.388700	-0.000001	-3.107028	 7.185829	-0.161987	 0.888842	-4.910198	 0.283633	-2.194759	 8.659914	 0.501976	-91.168240	 69.778850	-177.823900	-7.853230	 0.514380	-26.451760	 23.304850	-0.042464	-1.621052	-8.890921	-10.345470	-4.188371	-2.027600	 6.559038	 9.033609	-5.188889	 0.308190	 3.541030	-5.234859	 0.342567	 0.430617	 4.372439	 17.810760	-6.693725	-7.355934	-13.357350	 1.821004	 89.013080	 68.670440	 177.362300	 9.513080	 9.862672	 11.651960	-24.410760	-6.008256	 20.525050	 5.945830	-10.422510	 6.210287	 1.803333	 3.979147	-15.098590	 4.898592	 3.004813	-9.310344	 5.224449	 0.395017	 2.014677
 0.000331	 0.046279	 1.271849	-0.077588	 2.594244	 0.723076	 20.270170	-8.119173	 176.633700	 2.272939	-15.148260	 0.703292	-0.157585	 71.130360	 0.025020	-2.385833	 28.452750	 0.000004	-12.808600	-7.184689	-177.400500	-0.760775	-13.147860	 0.999402	 5.460249	 69.978100	 0.855666	 2.384659	 28.388700	-0.000001	-4.197931	 7.336460	-0.172575	 0.876506	-5.164394	 0.289724	-2.176210	 9.151695	 0.519113	-91.132510	 69.533960	-177.741200	-7.545322	 0.695302	-27.144110	 22.551890	-0.006303	-1.891695	-8.625663	-10.524840	-4.263936	-2.027600	 6.559038	 9.033609	-5.188889	 0.308190	 3.541030	-5.234859	 0.342567	 0.430617	 4.447009	 18.450630	-6.896081	-7.331152	-13.787580	 1.795248	 88.964150	 68.333870	 177.263200	 9.196374	 10.238450	 11.980920	-23.814880	-5.818572	 21.011720	 5.668479	-10.473860	 6.114928	 1.803333	 3.979147	-15.098590	 4.898592	 3.004813	-9.310344	 5.224449	 0.395017	 2.014677
 0.000070	 0.050616	 1.269116	-0.051614	 3.051552	 0.798080	 20.671860	-9.741589	 176.765000	 2.206205	-16.926460	 0.764086	 0.969012	 71.728470	-1.121988	-2.385833	 28.452750	 0.000004	-13.326660	-8.790415	-177.727700	-0.708381	-14.984730	 1.149615	 5.014198	 70.701550	 1.354001	 2.384659	 28.388700	-0.000001	-7.717630	 7.842832	-0.206624	 0.837210	-5.783888	 0.313033	-2.122779	 10.668270	 0.569669	-91.012400	 68.736020	-177.478300	-6.504075	 1.472050	-29.676030	 20.091040	 0.154374	-2.768498	-7.776518	-11.115210	-4.547728	-2.027600	 6.559038	 9.033609	-5.188889	 0.308190	 3.541030	-5.234859	 0.342567	 0.430617	 4.692237	 20.556430	-7.567036	-7.235609	-15.214170	 1.709656	 88.796340	 67.209090	 176.941700	 7.997495	 11.781280	 13.484070	-21.945840	-5.002352	 22.062890	 4.753597	-10.646680	 5.808562	 1.803333	 3.979147	-15.098590	 4.898592	 3.004813	-9.310344	 5.224449	 0.395017	 2.014677
-0.000405	 0.055903	 1.265983	 0.005996	 3.664916	 0.882154	 21.031360	-11.686080	 176.960100	 2.241157	-18.928860	 0.862693	 2.385941	 72.459050	-2.690020	-2.385833	 28.452750	 0.000004	-13.901740	-10.647450	-178.146100	-0.662844	-16.923940	 1.307579	 4.202962	 71.443570	 2.278256	 2.384659	 28.388700	-0.000001	-10.998790	 8.303407	-0.231597	 0.844661	-6.055753	 0.307329	-2.205910	 11.774990	 0.642473	-90.930970	 68.163540	-177.318500	-5.570405	 2.627392	-32.268260	 17.593990	 0.376671	-3.616505	-7.202203	-11.969980	-5.009505	-2.027600	 6.559038	 9.033609	-5.188889	 0.308190	 3.541030	-5.234859	 0.342567	 0.430617	 4.714244	 22.306100	-8.072385	-7.066973	-16.556160	 1.637926	 88.639880	 66.102530	 176.679900	 6.553758	 13.497340	 15.297340	-19.983090	-3.975811	 22.645460	 3.913541	-10.998620	 5.615041	 1.803333	 3.979147	-15.098590	 4.898592	 3.004813	-9.310344	 5.224449	 0.395017	 2.014677
-0.000922	 0.061645	 1.262716	 0.063971	 4.285724	 0.955163	 21.370290	-13.756410	 177.181400	 2.265088	-21.140400	 0.976323	 4.049538	 73.256770	-4.531620	-2.385833	 28.452750	 0.000004	-14.490710	-12.515110	-178.582000	-0.613360	-18.814820	 1.464653	 3.248935	 72.129500	 3.364365	 2.384659	 28.388700	-0.000001	-14.092170	 8.781504	-0.255357	 0.876093	-5.719494	 0.276215	-2.289430	 12.607290	 0.719367	-90.846750	 67.586850	-177.159500	-4.799392	 3.497048	-34.997380	 15.159290	 0.653949	-4.435061	-6.654603	-12.771780	-5.501425	-2.027600	 6.559038	 9.033609	-5.188889	 0.308190	 3.541030	-5.234859	 0.342567	 0.430617	 4.753405	 24.070260	-8.579679	-6.892538	-17.905360	 1.572707	 88.477060	 64.988230	 176.420400	 5.201874	 14.924030	 17.090290	-18.058890	-3.068443	 23.837570	 3.082386	-11.316680	 5.439773	 1.803333	 3.979147	-15.098590	 4.898592	 3.004813	-9.310344	 5.224449	 0.395017	 2.014677
-0.001407	 0.068029	 1.259882	 0.126903	 5.060637	 1.041643	 21.823800	-15.826140	 177.520800	 2.377454	-22.936990	 1.063787	 6.139182	 73.804780	-6.824792	-2.385833	 28.452760	 0.000004	-15.146040	-14.383920	-179.101900	-0.741717	-20.298320	 1.530637	 1.948780	 72.595310	 5.012141	 2.384659	 28.388700	-0.000001	-16.915240	 9.209441	-0.303511	 0.938021	-5.204249	 0.236513	-2.443347	 13.176460	 0.779769	-90.826420	 66.841960	-177.223700	-4.067355	 3.925591	-37.452240	 12.289780	 0.981418	-5.207948	-6.611970	-13.500890	-6.203671	-2.027600	 6.559038	 9.033609	-5.188889	 0.308190	 3.541030	-5.234859	 0.342567	 0.430617	 4.611191	 25.172080	-8.758759	-6.768070	-18.807620	 1.433046	 88.412850	 63.810860	 176.443900	 3.647373	 15.718630	 18.471720	-15.917580	-2.103247	 25.584020	 2.338098	-11.542990	 5.516846	 1.803333	 3.979147	-15.098590	 4.898592	 3.004813	-9.310344	 5.224449	 0.395017	 2.014677
-0.001862	 0.075103	 1.257307	 0.190253	 5.910175	 1.130338	 22.125800	-17.875830	 177.888200	 2.329469	-24.462090	 1.137818	 8.492871	 74.141910	-9.416725	-2.385832	 28.452790	-0.000001	-15.831580	-16.242860	-179.684800	-0.948519	-21.506470	 1.541315	 0.410254	 72.866260	 7.000668	 2.384659	 28.388700	-0.000001	-19.500410	 9.607190	-0.362923	 1.024189	-4.245587	 0.169145	-2.627276	 13.472920	 0.840855	-90.834720	 66.031040	-177.367500	-3.388542	 4.211118	-40.046410	 9.289810	 1.352465	-5.939694	-6.790234	-14.157680	-6.990647	-2.027600	 6.559038	 9.033609	-5.188889	 0.308190	 3.541030	-5.234859	 0.342567	 0.430617	 4.395834	 26.029980	-8.808887	-6.665061	-19.546350	 1.266472	 88.392650	 62.605180	 176.567000	 1.986955	 16.313030	 20.042990	-13.775190	-1.011583	 27.278430	 1.637602	-11.707800	 5.703015	 1.803333	 3.979147	-15.098590	 4.898592	 3.004813	-9.310344	 5.224449	 0.395017	 2.014677
-0.002249	 0.081614	 1.255047	 0.267555	 6.710657	 1.189512	 22.433050	-19.673710	 178.290500	 2.334762	-25.678070	 1.192925	 10.699040	 74.307980	-11.848470	-2.385832	 28.452790	-0.000001	-16.397970	-17.917350	 179.795800	-1.056008	-22.524310	 1.552810	-1.105317	 73.051090	 8.900788	 2.384659	 28.388700	-0.000001	-21.556130	 9.911669	-0.415849	 1.107741	-3.241349	 0.100623	-2.791479	 13.572410	 0.906804	-90.916820	 65.439740	-177.668000	-2.907203	 4.486861	-42.097820	 6.855605	 1.701664	-6.539706	-6.984619	-14.604790	-7.673842	-2.027600	 6.559038	 9.033609	-5.188889	 0.308190	 3.541030	-5.234859	 0.342567	 0.430617	 4.197465	 26.619200	-8.826624	-6.580481	-20.096880	 1.136604	 88.452010	 61.739840	 176.819200	 0.539056	 16.897860	 21.358000	-12.053400	-0.024058	 28.693590	 1.058457	-11.831010	 5.868704	 1.803333	 3.979147	-15.098590	 4.898592	 3.004813	-9.310344	 5.224449	 0.395017	 2.014677
-0.002663	 0.089562	 1.252194	 0.433716	 7.795921	 1.210111	 22.736280	-21.873310	 178.889300	 2.300025	-27.043080	 1.235848	 13.562070	 74.354340	-14.963450	-2.385832	 28.452790	-0.000001	-17.161480	-20.068160	 179.143600	-1.164137	-23.823310	 1.610628	-3.177675	 73.297470	 11.387350	 2.384659	 28.388700	-0.000001	-23.713210	 10.180950	-0.477801	 1.192115	-2.473799	 0.058191	-2.985295	 13.625120	 1.005813	-91.244000	 65.119750	-178.577900	-2.428112	 5.081661	-43.422950	 4.478347	 2.123540	-7.182053	-7.240624	-14.870170	-8.447810	-2.027600	 6.559038	 9.033609	-5.188889	 0.308190	 3.541030	-5.234859	 0.342567	 0.430617	 3.934120	 26.799860	-8.781759	-6.493098	-20.441090	 1.026164	 88.755650	 61.322930	 177.581300	-1.252581	 17.988970	 22.193890	-10.312840	 1.105161	 30.261670	 0.444717	-11.989550	 6.033939	 1.803333	 3.979147	-15.098590	 4.898592	 3.004813	-9.310344	 5.224449	 0.395017	 2.014677
-0.003290	 0.097405	 1.249197	 0.602061	 8.891932	 1.229630	 23.033420	-24.014700	 179.485800	 2.276640	-28.350030	 1.279603	 16.410940	 74.362530	-18.099130	-2.385833	 28.452760	 0.000004	-17.908640	-22.201990	 178.482100	-1.243515	-25.194560	 1.663487	-5.280619	 73.609900	 13.913040	 2.384659	 28.388700	-0.000001	-25.628950	 10.438620	-0.545828	 1.278851	-1.409953	-0.002965	-3.179685	 13.538180	 1.107830	-91.579250	 64.801260	-179.481600	-2.172110	 5.356528	-44.611290	 2.169112	 2.569391	-7.782207	-7.513535	-15.105060	-9.223195	-2.027600	 6.559038	 9.033609	-5.188889	 0.308190	 3.541030	-5.234859	 0.342567	 0.430617	 3.669955	 26.980910	-8.735134	-6.406170	-20.786010	 0.915975	 89.066580	 60.907130	 178.338000	-2.932240	 18.889610	 23.185930	-8.691135	 2.278223	 31.995140	-0.154444	-12.121350	 6.214529	 1.803333	 3.979147	-15.098590	 4.898592	 3.004813	-9.310344	 5.224449	 0.395017	 2.014677
-0.004083	 0.105164	 1.246096	 0.732772	 10.094550	 1.209046	 23.380660	-26.137390	-179.838700	 2.296154	-29.568600	 1.339376	 19.573570	 74.414470	-21.614390	-2.385833	 28.452760	 0.000004	-18.564410	-24.433640	 177.838000	-1.306075	-26.676120	 1.726112	-7.904707	 74.084120	 16.997420	 2.384659	 28.388700	-0.000001	-27.302930	 10.704150	-0.558698	 1.365391	-0.448879	-0.098990	-3.334586	 13.342000	 1.326773	-91.997200	 64.879650	 179.416100	-2.150509	 5.843237	-45.202480	 0.569098	 3.026220	-8.339706	-7.518551	-15.258050	-9.646272	-2.027600	 6.559038	 9.033609	-5.188889	 0.308190	 3.541030	-5.234859	 0.342567	 0.430617	 3.435571	 26.369660	-8.835584	-6.322385	-20.664460	 0.786520	 89.471380	 60.628430	 179.285000	-4.561149	 19.873370	 23.889950	-7.009007	 3.595085	 33.954320	-0.354056	-12.377900	 6.381063	 1.803333	 3.979147	-15.098590	 4.898592	 3.004813	-9.310344	 5.224449	 0.395017	 2.014677
-0.005074	 0.112811	 1.243174	 0.861860	 11.389410	 1.175900	 23.751970	-28.199790	-179.125500	 2.331194	-30.629440	 1.400723	 22.830190	 74.405830	-25.254780	-2.385832	 28.452790	-0.000001	-19.227020	-26.665180	 177.185600	-1.386627	-28.148900	 1.775653	-10.805400	 74.611670	 20.393260	 2.384659	 28.388700	-0.000001	-28.759290	 10.947280	-0.562452	 1.456311	 0.993067	-0.205932	-3.482914	 12.897710	 1.565471	-92.441470	 65.049900	 178.228100	-2.352791	 6.131326	-45.594460	-0.869616	 3.509341	-8.870316	-7.463285	-15.397450	-10.009530	-2.027600	 6.559038	 9.033609	-5.188889	 0.308190	 3.541030	-5.234859	 0.342567	 0.430617	 3.199510	 25.567310	-8.977753	-6.237682	-20.436040	 0.646582	 89.914480	 60.372920	-179.698000	-6.158826	 20.753080	 24.584620	-5.425458	 5.064728	 36.546880	-0.464624	-12.651620	 6.553945	 1.803333	 3.979147	-15.098590	 4.898592	 3.004813	-9.310344	 5.224449	 0.395017	 2.014677
-0.006577	 0.121264	 1.240651	 1.214915	 13.091560	 1.185201	 23.873180	-30.640370	-178.314100	 2.548757	-31.475230	 1.549276	 25.813890	 74.077570	-28.840160	-2.385832	 28.452790	-0.000001	-20.194090	-29.144680	 176.239100	-1.305594	-29.398040	 1.887443	-14.411920	 74.833150	 24.442220	 2.384659	 28.388700	-0.000001	-29.995410	 10.996850	-0.590943	 1.441873	 2.337313	-0.351404	-3.665212	 12.226360	 1.662756	-92.861480	 65.178050	 177.092200	-2.483527	 6.170420	-45.807530	-2.236620	 3.994759	-9.353128	-7.374814	-15.381310	-10.312800	-2.027600	 6.559038	 9.033609	-5.188889	 0.308190	 3.541030	-5.234859	 0.342567	 0.430617	 2.987051	 24.980680	-8.934530	-6.188235	-20.363600	 0.478595	 90.366970	 60.307670	-178.668100	-7.713655	 21.545910	 25.421350	-4.047217	 6.586980	 39.015350	-0.537082	-12.796920	 6.784272	 1.803333	 3.979147	-15.098590	 4.898592	 3.004813	-9.310344	 5.224449	 0.395017	 2.014677
